<svg xmlns="http://www.w3.org/2000/svg" viewBox="0 0 32 32" id="Coding-Apps-Website-Web-Form-Drop-Down-Menu-1--Streamline-Ultimate" height="32" width="32"><desc>Coding Apps Website Web Form Drop Down Menu 1 Streamline Icon: https://streamlinehq.com</desc><path d="M29.24 7.053333333333333H2.76a2.6666666666666665 2.6666666666666665 0 0 0 -2.6666666666666665 2.6666666666666665v12.559999999999999a2.6666666666666665 2.6666666666666665 0 0 0 2.6666666666666665 2.6666666666666665h26.479999999999997a2.6666666666666665 2.6666666666666665 0 0 0 2.6666666666666665 -2.6666666666666665V9.719999999999999a2.6666666666666665 2.6666666666666665 0 0 0 -2.6666666666666665 -2.6666666666666665Zm-11.093333333333334 15.226666666666667H2.76V9.719999999999999h15.386666666666665Zm10.253333333333334 -7.88 -3.0666666666666664 4a0.6399999999999999 0.6399999999999999 0 0 1 -0.5333333333333333 0.26666666666666666 0.6799999999999999 0.6799999999999999 0 0 1 -0.5333333333333333 -0.26666666666666666l-2.9333333333333336 -4a0.7066666666666667 0.7066666666666667 0 0 1 -0.06666666666666667 -0.7066666666666667 0.6933333333333334 0.6933333333333334 0 0 1 0.6 -0.36h6a0.6533333333333333 0.6533333333333333 0 0 1 0.5866666666666667 0.36 0.6799999999999999 0.6799999999999999 0 0 1 -0.05333333333333333 0.7066666666666667Z" fill="#8cc63e" stroke-width="1.3333"></path></svg>